<mxfile host="Electron" agent="Mozilla/5.0 (Macintosh; Intel Mac OS X 10_15_7) AppleWebKit/537.36 (KHTML, like Gecko) draw.io/26.0.9 Chrome/128.0.6613.186 Electron/32.2.5 Safari/537.36" version="26.0.9">
  <diagram name="Page-1" id="l7o2JloaW-Vr8Yl9ksHm">
    <mxGraphModel dx="1052" dy="856" grid="1" gridSize="10" guides="1" tooltips="1" connect="1" arrows="1" fold="1" page="1" pageScale="1" pageWidth="850" pageHeight="1100" math="0" shadow="0">
      <root>
        <mxCell id="0" />
        <mxCell id="1" parent="0" />
        <mxCell id="0bJIy5H0bycv_KVrB_Gu-24" value="StudyFlow" style="rounded=1;whiteSpace=wrap;html=1;arcSize=3;fillColor=none;verticalAlign=bottom;fontStyle=1;dashed=1;align=center;fontFamily=Helvetica Neue;" vertex="1" parent="1">
          <mxGeometry x="10" y="240" width="760" height="390" as="geometry" />
        </mxCell>
        <mxCell id="0bJIy5H0bycv_KVrB_Gu-50" value="Utilities" style="rounded=1;whiteSpace=wrap;html=1;arcSize=3;fontStyle=1;align=center;verticalAlign=top;fontFamily=Helvetica Neue;fillColor=#f5f5f5;fontColor=#333333;strokeColor=#666666;" vertex="1" parent="1">
          <mxGeometry x="490" y="340" width="260" height="270" as="geometry" />
        </mxCell>
        <mxCell id="0bJIy5H0bycv_KVrB_Gu-23" value="BPMN" style="rounded=1;whiteSpace=wrap;html=1;fillColor=none;verticalAlign=top;fontStyle=1;dashed=1;perimeterSpacing=0;fontFamily=Helvetica Neue;fontSize=12;" vertex="1" parent="1">
          <mxGeometry x="10" y="120" width="760" height="110" as="geometry" />
        </mxCell>
        <mxCell id="0bJIy5H0bycv_KVrB_Gu-1" value="bpmn:StartEvent" style="rounded=0;whiteSpace=wrap;html=1;fontFamily=Helvetica Neue;fontSize=12;" vertex="1" parent="1">
          <mxGeometry x="30" y="150" width="120" height="60" as="geometry" />
        </mxCell>
        <mxCell id="0bJIy5H0bycv_KVrB_Gu-2" value="bpmn:EndEvent" style="rounded=0;whiteSpace=wrap;html=1;fontFamily=Helvetica Neue;fontSize=12;" vertex="1" parent="1">
          <mxGeometry x="630" y="150" width="120" height="60" as="geometry" />
        </mxCell>
        <mxCell id="0bJIy5H0bycv_KVrB_Gu-20" value="" style="rounded=0;orthogonalLoop=1;jettySize=auto;html=1;endArrow=block;endFill=0;fontFamily=Helvetica Neue;fontSize=12;endSize=9;" edge="1" parent="1" source="0bJIy5H0bycv_KVrB_Gu-3" target="0bJIy5H0bycv_KVrB_Gu-19">
          <mxGeometry relative="1" as="geometry" />
        </mxCell>
        <mxCell id="0bJIy5H0bycv_KVrB_Gu-3" value="Element" style="rounded=0;whiteSpace=wrap;html=1;fontFamily=Helvetica Neue;fontSize=12;dashed=1;" vertex="1" parent="1">
          <mxGeometry x="170" y="260" width="120" height="60" as="geometry" />
        </mxCell>
        <mxCell id="0bJIy5H0bycv_KVrB_Gu-10" style="rounded=0;orthogonalLoop=1;jettySize=auto;html=1;endArrow=block;endFill=0;fontFamily=Helvetica Neue;fontSize=12;endSize=9;" edge="1" parent="1" source="0bJIy5H0bycv_KVrB_Gu-4" target="0bJIy5H0bycv_KVrB_Gu-3">
          <mxGeometry relative="1" as="geometry" />
        </mxCell>
        <mxCell id="0bJIy5H0bycv_KVrB_Gu-22" value="" style="rounded=0;orthogonalLoop=1;jettySize=auto;html=1;endArrow=block;endFill=0;fontFamily=Helvetica Neue;fontSize=12;endSize=9;" edge="1" parent="1" source="0bJIy5H0bycv_KVrB_Gu-4" target="0bJIy5H0bycv_KVrB_Gu-21">
          <mxGeometry relative="1" as="geometry">
            <Array as="points">
              <mxPoint x="370" y="350" />
            </Array>
          </mxGeometry>
        </mxCell>
        <mxCell id="0bJIy5H0bycv_KVrB_Gu-4" value="Activity" style="rounded=0;whiteSpace=wrap;html=1;fontFamily=Helvetica Neue;fontSize=12;dashed=1;" vertex="1" parent="1">
          <mxGeometry x="170" y="350" width="120" height="60" as="geometry" />
        </mxCell>
        <mxCell id="0bJIy5H0bycv_KVrB_Gu-11" style="rounded=0;orthogonalLoop=1;jettySize=auto;html=1;endArrow=block;endFill=0;fontFamily=Helvetica Neue;fontSize=12;endSize=9;" edge="1" parent="1" source="0bJIy5H0bycv_KVrB_Gu-5" target="0bJIy5H0bycv_KVrB_Gu-4">
          <mxGeometry relative="1" as="geometry" />
        </mxCell>
        <mxCell id="0bJIy5H0bycv_KVrB_Gu-5" value="CognitiveTest" style="rounded=0;whiteSpace=wrap;html=1;fontFamily=Helvetica Neue;fontSize=12;" vertex="1" parent="1">
          <mxGeometry x="90" y="440" width="120" height="60" as="geometry" />
        </mxCell>
        <mxCell id="0bJIy5H0bycv_KVrB_Gu-13" style="rounded=0;orthogonalLoop=1;jettySize=auto;html=1;endArrow=block;endFill=0;fontFamily=Helvetica Neue;fontSize=12;endSize=9;" edge="1" parent="1" source="0bJIy5H0bycv_KVrB_Gu-6" target="0bJIy5H0bycv_KVrB_Gu-4">
          <mxGeometry relative="1" as="geometry" />
        </mxCell>
        <mxCell id="0bJIy5H0bycv_KVrB_Gu-6" value="Questionnaire" style="rounded=0;whiteSpace=wrap;html=1;fontFamily=Helvetica Neue;fontSize=12;" vertex="1" parent="1">
          <mxGeometry x="250" y="440" width="120" height="60" as="geometry" />
        </mxCell>
        <mxCell id="0bJIy5H0bycv_KVrB_Gu-12" style="rounded=0;orthogonalLoop=1;jettySize=auto;html=1;endArrow=block;endFill=0;fontFamily=Helvetica Neue;fontSize=12;endSize=9;" edge="1" parent="1" source="0bJIy5H0bycv_KVrB_Gu-7" target="0bJIy5H0bycv_KVrB_Gu-6">
          <mxGeometry relative="1" as="geometry" />
        </mxCell>
        <mxCell id="0bJIy5H0bycv_KVrB_Gu-7" value="Instruction" style="rounded=0;whiteSpace=wrap;html=1;fontFamily=Helvetica Neue;fontSize=12;" vertex="1" parent="1">
          <mxGeometry x="250" y="530" width="120" height="60" as="geometry" />
        </mxCell>
        <mxCell id="0bJIy5H0bycv_KVrB_Gu-15" style="rounded=0;orthogonalLoop=1;jettySize=auto;html=1;endArrow=block;endFill=0;fontFamily=Helvetica Neue;fontSize=12;endSize=9;" edge="1" parent="1" source="0bJIy5H0bycv_KVrB_Gu-8" target="0bJIy5H0bycv_KVrB_Gu-14">
          <mxGeometry relative="1" as="geometry" />
        </mxCell>
        <mxCell id="0bJIy5H0bycv_KVrB_Gu-8" value="RandomGateway" style="rounded=0;whiteSpace=wrap;html=1;fontFamily=Helvetica Neue;fontSize=12;" vertex="1" parent="1">
          <mxGeometry x="470" y="260" width="120" height="60" as="geometry" />
        </mxCell>
        <mxCell id="0bJIy5H0bycv_KVrB_Gu-17" style="rounded=0;orthogonalLoop=1;jettySize=auto;html=1;dashed=1;endArrow=block;endFill=0;fontFamily=Helvetica Neue;fontSize=12;endSize=9;" edge="1" parent="1" source="0bJIy5H0bycv_KVrB_Gu-9" target="0bJIy5H0bycv_KVrB_Gu-1">
          <mxGeometry relative="1" as="geometry" />
        </mxCell>
        <mxCell id="0bJIy5H0bycv_KVrB_Gu-9" value="StartEvent" style="rounded=0;whiteSpace=wrap;html=1;fontFamily=Helvetica Neue;fontSize=12;" vertex="1" parent="1">
          <mxGeometry x="30" y="260" width="120" height="60" as="geometry" />
        </mxCell>
        <mxCell id="0bJIy5H0bycv_KVrB_Gu-14" value="bpmn2:ExclusiveGateway" style="rounded=0;whiteSpace=wrap;html=1;fontFamily=Helvetica Neue;fontSize=12;" vertex="1" parent="1">
          <mxGeometry x="450" y="150" width="160" height="60" as="geometry" />
        </mxCell>
        <mxCell id="0bJIy5H0bycv_KVrB_Gu-18" style="rounded=0;orthogonalLoop=1;jettySize=auto;html=1;dashed=1;endArrow=block;endFill=0;fontFamily=Helvetica Neue;fontSize=12;endSize=9;" edge="1" parent="1" source="0bJIy5H0bycv_KVrB_Gu-16" target="0bJIy5H0bycv_KVrB_Gu-2">
          <mxGeometry relative="1" as="geometry" />
        </mxCell>
        <mxCell id="0bJIy5H0bycv_KVrB_Gu-16" value="EndEvent" style="rounded=0;whiteSpace=wrap;html=1;fontFamily=Helvetica Neue;fontSize=12;" vertex="1" parent="1">
          <mxGeometry x="630" y="260" width="120" height="60" as="geometry" />
        </mxCell>
        <mxCell id="0bJIy5H0bycv_KVrB_Gu-19" value="bpmn:BaseElement" style="rounded=0;whiteSpace=wrap;html=1;fontFamily=Helvetica Neue;fontSize=12;dashed=1;" vertex="1" parent="1">
          <mxGeometry x="170" y="150" width="120" height="60" as="geometry" />
        </mxCell>
        <mxCell id="0bJIy5H0bycv_KVrB_Gu-21" value="bpmn:Task" style="rounded=0;whiteSpace=wrap;html=1;fontFamily=Helvetica Neue;fontSize=12;" vertex="1" parent="1">
          <mxGeometry x="310" y="150" width="120" height="60" as="geometry" />
        </mxCell>
        <mxCell id="0bJIy5H0bycv_KVrB_Gu-25" value="StartEvent" style="swimlane;fontStyle=1;align=center;verticalAlign=top;childLayout=stackLayout;horizontal=1;startSize=26;horizontalStack=0;resizeParent=1;resizeParentMax=0;resizeLast=0;collapsible=1;marginBottom=0;whiteSpace=wrap;html=1;fontFamily=Helvetica Neue;" vertex="1" parent="1">
          <mxGeometry x="70" y="770" width="160" height="104" as="geometry" />
        </mxCell>
        <mxCell id="0bJIy5H0bycv_KVrB_Gu-26" value="+ requiresConsent: boolean&lt;div&gt;+ consentFormUrl: boolean&lt;/div&gt;" style="text;strokeColor=none;fillColor=none;align=left;verticalAlign=top;spacingLeft=4;spacingRight=4;overflow=hidden;rotatable=0;points=[[0,0.5],[1,0.5]];portConstraint=eastwest;whiteSpace=wrap;html=1;fontFamily=Helvetica Neue;" vertex="1" parent="0bJIy5H0bycv_KVrB_Gu-25">
          <mxGeometry y="26" width="160" height="44" as="geometry" />
        </mxCell>
        <mxCell id="0bJIy5H0bycv_KVrB_Gu-27" value="" style="line;strokeWidth=1;fillColor=none;align=left;verticalAlign=middle;spacingTop=-1;spacingLeft=3;spacingRight=3;rotatable=0;labelPosition=right;points=[];portConstraint=eastwest;strokeColor=inherit;fontFamily=Helvetica Neue;" vertex="1" parent="0bJIy5H0bycv_KVrB_Gu-25">
          <mxGeometry y="70" width="160" height="8" as="geometry" />
        </mxCell>
        <mxCell id="0bJIy5H0bycv_KVrB_Gu-28" value="+ method(type): type" style="text;strokeColor=none;fillColor=none;align=left;verticalAlign=top;spacingLeft=4;spacingRight=4;overflow=hidden;rotatable=0;points=[[0,0.5],[1,0.5]];portConstraint=eastwest;whiteSpace=wrap;html=1;fontFamily=Helvetica Neue;" vertex="1" parent="0bJIy5H0bycv_KVrB_Gu-25">
          <mxGeometry y="78" width="160" height="26" as="geometry" />
        </mxCell>
        <mxCell id="0bJIy5H0bycv_KVrB_Gu-29" value="Activity" style="swimlane;fontStyle=1;align=center;verticalAlign=top;childLayout=stackLayout;horizontal=1;startSize=26;horizontalStack=0;resizeParent=1;resizeParentMax=0;resizeLast=0;collapsible=1;marginBottom=0;whiteSpace=wrap;html=1;fontFamily=Helvetica Neue;" vertex="1" parent="1">
          <mxGeometry x="300" y="770" width="160" height="104" as="geometry" />
        </mxCell>
        <mxCell id="0bJIy5H0bycv_KVrB_Gu-30" value="+ url&lt;span style=&quot;background-color: transparent; color: light-dark(rgb(0, 0, 0), rgb(255, 255, 255));&quot;&gt;: String&lt;/span&gt;" style="text;strokeColor=none;fillColor=none;align=left;verticalAlign=top;spacingLeft=4;spacingRight=4;overflow=hidden;rotatable=0;points=[[0,0.5],[1,0.5]];portConstraint=eastwest;whiteSpace=wrap;html=1;fontFamily=Helvetica Neue;" vertex="1" parent="0bJIy5H0bycv_KVrB_Gu-29">
          <mxGeometry y="26" width="160" height="44" as="geometry" />
        </mxCell>
        <mxCell id="0bJIy5H0bycv_KVrB_Gu-31" value="" style="line;strokeWidth=1;fillColor=none;align=left;verticalAlign=middle;spacingTop=-1;spacingLeft=3;spacingRight=3;rotatable=0;labelPosition=right;points=[];portConstraint=eastwest;strokeColor=inherit;fontFamily=Helvetica Neue;" vertex="1" parent="0bJIy5H0bycv_KVrB_Gu-29">
          <mxGeometry y="70" width="160" height="8" as="geometry" />
        </mxCell>
        <mxCell id="0bJIy5H0bycv_KVrB_Gu-32" value="+ method(type): type" style="text;strokeColor=none;fillColor=none;align=left;verticalAlign=top;spacingLeft=4;spacingRight=4;overflow=hidden;rotatable=0;points=[[0,0.5],[1,0.5]];portConstraint=eastwest;whiteSpace=wrap;html=1;fontFamily=Helvetica Neue;" vertex="1" parent="0bJIy5H0bycv_KVrB_Gu-29">
          <mxGeometry y="78" width="160" height="26" as="geometry" />
        </mxCell>
        <mxCell id="0bJIy5H0bycv_KVrB_Gu-33" value="Instruction" style="swimlane;fontStyle=1;align=center;verticalAlign=top;childLayout=stackLayout;horizontal=1;startSize=26;horizontalStack=0;resizeParent=1;resizeParentMax=0;resizeLast=0;collapsible=1;marginBottom=0;whiteSpace=wrap;html=1;fontFamily=Helvetica Neue;" vertex="1" parent="1">
          <mxGeometry x="500" y="770" width="160" height="104" as="geometry" />
        </mxCell>
        <mxCell id="0bJIy5H0bycv_KVrB_Gu-34" value="&lt;div&gt;&lt;span style=&quot;background-color: transparent; color: light-dark(rgb(0, 0, 0), rgb(255, 255, 255));&quot;&gt;+ content&lt;/span&gt;&lt;span style=&quot;background-color: transparent; color: light-dark(rgb(0, 0, 0), rgb(255, 255, 255));&quot;&gt;: String&lt;/span&gt;&lt;br&gt;&lt;/div&gt;" style="text;strokeColor=none;fillColor=none;align=left;verticalAlign=top;spacingLeft=4;spacingRight=4;overflow=hidden;rotatable=0;points=[[0,0.5],[1,0.5]];portConstraint=eastwest;whiteSpace=wrap;html=1;fontFamily=Helvetica Neue;" vertex="1" parent="0bJIy5H0bycv_KVrB_Gu-33">
          <mxGeometry y="26" width="160" height="44" as="geometry" />
        </mxCell>
        <mxCell id="0bJIy5H0bycv_KVrB_Gu-35" value="" style="line;strokeWidth=1;fillColor=none;align=left;verticalAlign=middle;spacingTop=-1;spacingLeft=3;spacingRight=3;rotatable=0;labelPosition=right;points=[];portConstraint=eastwest;strokeColor=inherit;fontFamily=Helvetica Neue;" vertex="1" parent="0bJIy5H0bycv_KVrB_Gu-33">
          <mxGeometry y="70" width="160" height="8" as="geometry" />
        </mxCell>
        <mxCell id="0bJIy5H0bycv_KVrB_Gu-36" value="+ method(type): type" style="text;strokeColor=none;fillColor=none;align=left;verticalAlign=top;spacingLeft=4;spacingRight=4;overflow=hidden;rotatable=0;points=[[0,0.5],[1,0.5]];portConstraint=eastwest;whiteSpace=wrap;html=1;fontFamily=Helvetica Neue;" vertex="1" parent="0bJIy5H0bycv_KVrB_Gu-33">
          <mxGeometry y="78" width="160" height="26" as="geometry" />
        </mxCell>
        <mxCell id="0bJIy5H0bycv_KVrB_Gu-37" value="EndEvent" style="swimlane;fontStyle=1;align=center;verticalAlign=top;childLayout=stackLayout;horizontal=1;startSize=26;horizontalStack=0;resizeParent=1;resizeParentMax=0;resizeLast=0;collapsible=1;marginBottom=0;whiteSpace=wrap;html=1;fontFamily=Helvetica Neue;" vertex="1" parent="1">
          <mxGeometry x="670" y="770" width="160" height="104" as="geometry" />
        </mxCell>
        <mxCell id="0bJIy5H0bycv_KVrB_Gu-38" value="&lt;div&gt;&lt;span style=&quot;background-color: transparent; color: light-dark(rgb(0, 0, 0), rgb(255, 255, 255));&quot;&gt;+ hasRedirectUrl&lt;/span&gt;&lt;span style=&quot;background-color: transparent; color: light-dark(rgb(0, 0, 0), rgb(255, 255, 255));&quot;&gt;: String&lt;/span&gt;&lt;br&gt;&lt;/div&gt;&lt;div&gt;&lt;span style=&quot;background-color: transparent; color: light-dark(rgb(0, 0, 0), rgb(255, 255, 255));&quot;&gt;+ redirectUrl: String&lt;/span&gt;&lt;/div&gt;" style="text;strokeColor=none;fillColor=none;align=left;verticalAlign=top;spacingLeft=4;spacingRight=4;overflow=hidden;rotatable=0;points=[[0,0.5],[1,0.5]];portConstraint=eastwest;whiteSpace=wrap;html=1;fontFamily=Helvetica Neue;" vertex="1" parent="0bJIy5H0bycv_KVrB_Gu-37">
          <mxGeometry y="26" width="160" height="44" as="geometry" />
        </mxCell>
        <mxCell id="0bJIy5H0bycv_KVrB_Gu-39" value="" style="line;strokeWidth=1;fillColor=none;align=left;verticalAlign=middle;spacingTop=-1;spacingLeft=3;spacingRight=3;rotatable=0;labelPosition=right;points=[];portConstraint=eastwest;strokeColor=inherit;fontFamily=Helvetica Neue;" vertex="1" parent="0bJIy5H0bycv_KVrB_Gu-37">
          <mxGeometry y="70" width="160" height="8" as="geometry" />
        </mxCell>
        <mxCell id="0bJIy5H0bycv_KVrB_Gu-40" value="+ method(type): type" style="text;strokeColor=none;fillColor=none;align=left;verticalAlign=top;spacingLeft=4;spacingRight=4;overflow=hidden;rotatable=0;points=[[0,0.5],[1,0.5]];portConstraint=eastwest;whiteSpace=wrap;html=1;fontFamily=Helvetica Neue;" vertex="1" parent="0bJIy5H0bycv_KVrB_Gu-37">
          <mxGeometry y="78" width="160" height="26" as="geometry" />
        </mxCell>
        <mxCell id="0bJIy5H0bycv_KVrB_Gu-45" value="MarkdownString" style="html=1;whiteSpace=wrap;fontFamily=Helvetica Neue;" vertex="1" parent="1">
          <mxGeometry x="500" y="370" width="100" height="50" as="geometry" />
        </mxCell>
        <mxCell id="0bJIy5H0bycv_KVrB_Gu-46" value="AssignmentAlgorithmEnum" style="html=1;whiteSpace=wrap;fontFamily=Helvetica Neue;" vertex="1" parent="1">
          <mxGeometry x="500" y="490" width="160" height="50" as="geometry" />
        </mxCell>
        <mxCell id="0bJIy5H0bycv_KVrB_Gu-47" value="ProbabilityDistributionEnum" style="html=1;whiteSpace=wrap;fontFamily=Helvetica Neue;" vertex="1" parent="1">
          <mxGeometry x="500" y="550" width="160" height="50" as="geometry" />
        </mxCell>
        <mxCell id="0bJIy5H0bycv_KVrB_Gu-48" value="InstrumentEnum" style="html=1;whiteSpace=wrap;fontFamily=Helvetica Neue;" vertex="1" parent="1">
          <mxGeometry x="500" y="430" width="100" height="50" as="geometry" />
        </mxCell>
        <mxCell id="0bJIy5H0bycv_KVrB_Gu-49" value="BehaverseTaskEnum" style="html=1;whiteSpace=wrap;fontFamily=Helvetica Neue;" vertex="1" parent="1">
          <mxGeometry x="610" y="430" width="130" height="50" as="geometry" />
        </mxCell>
        <mxCell id="0bJIy5H0bycv_KVrB_Gu-52" value="&lt;span style=&quot;color: rgb(255, 51, 51); font-weight: 700; text-wrap: nowrap;&quot;&gt;TODO: fields and types&lt;/span&gt;" style="shape=callout;whiteSpace=wrap;html=1;perimeter=calloutPerimeter;fillColor=#fff2cc;strokeColor=#d6b656;flipH=1;fontFamily=Helvetica Neue;" vertex="1" parent="1">
          <mxGeometry y="660" width="180" height="80" as="geometry" />
        </mxCell>
      </root>
    </mxGraphModel>
  </diagram>
</mxfile>
